<?xml version="1.0" encoding="UTF-8"?>
<svg id="_레이어_2" data-name="레이어 2" xmlns="http://www.w3.org/2000/svg" viewBox="0 0 154.37 186.86">
  <defs>
    <style>
      .cls-1 {
        fill: #0056ef;
      }
    </style>
  </defs>
  <g id="_레이어_1-2" data-name="레이어 1">
    <g>
      <path class="cls-1" d="M71.47.2c46.42-3.26,85.37,34.45,82.78,81.06-2.13,38.26-34.48,74.53-63.46,96.74-2.34,1.79-11.16,8.76-13.46,8.86-.56.02-.98-.09-1.5-.23-2.21-.6-10.05-6.84-12.36-8.63C25.75,148.98-13.84,100.75,4.73,49.96,14.92,22.09,41.83,2.28,71.47.2ZM74.9,36.61c-31.18,1.83-49.18,37.19-31.45,63.32,16.16,23.81,51.16,23.77,67.36,0,18.84-27.65-2.8-65.26-35.91-63.32Z"/>
      <path class="cls-1" d="M74.9,44.75c42.86-2.97,46.89,62.13,4.58,64.98-42.91,2.88-47.25-62.01-4.58-64.98Z"/>
    </g>
  </g>
</svg>