<?xml version="1.0" encoding="UTF-8"?>
<svg id="_레이어_2" data-name="레이어 2" xmlns="http://www.w3.org/2000/svg" viewBox="0 0 291.96 383.28">
  <defs>
    <style>
      .cls-1 {
        fill: #7248b9;
      }
    </style>
  </defs>
  <g id="_레이어_1-2" data-name="레이어 1">
    <g>
      <path class="cls-1" d="M179.68,0l-.03,80.49c-.42,13.95,15.79,31.79,29.59,31.79h82.71v241.4c0,13.73-17.29,29.61-31.08,29.56l-229.07.04c-17.41-1.52-30.44-14.27-31.81-31.81L.04,31.08C1.23,19.64,7.34,9.86,17.32,4.2L29.22,0h150.46ZM76.17,158.11c-12.42,4.06-11.38,19.81,1.31,22.3h137.02c13.44-2.35,13.42-20.15,0-22.49l-138.33.19ZM76.17,203.02c-12.42,4.06-11.38,19.81,1.31,22.3h137.02c13.44-2.35,13.42-20.15,0-22.49l-138.33.19ZM76.17,247.94c-12.42,4.06-11.38,19.81,1.31,22.3h137.02c13.44-2.35,13.42-20.15,0-22.49l-138.33.19ZM76.17,292.85c-12.02,3.94-11.61,18.95.63,22.24l92.79.07c13.06-2.27,13.57-19.32.68-22.43l-94.1.12Z"/>
      <path class="cls-1" d="M285.22,89.82h-74.48c-2.22,0-8.61-6.32-8.61-8.61V6.74l83.09,83.09Z"/>
    </g>
  </g>
</svg>