<?xml version="1.0" encoding="UTF-8"?>
<svg id="_레이어_2" data-name="레이어 2" xmlns="http://www.w3.org/2000/svg" viewBox="0 0 543.07 431.74">
  <g id="_레이어_1-2" data-name="레이어 1">
    <path d="M543.07,234.41c-2.82,6.52-4.65,11.96-10.58,16.46-1.95,1.48-10.45,5.81-12.22,5.81h-57.95c.21,4.9.21,9.22.13,14.28-.74,44.28,2.59,92.14-.08,136.71-1.42,10.87-9.51,18.34-19.44,21.91-31.42-.69-69.87,4.36-100.8,1.01-14.45-1.57-23.62-13.07-24.9-27.06-2.53-27.74,6.81-81.83-7.61-103.73-19.2-29.16-64.76-25.62-79.56,5.99-9.38,20.03-1.82,71.55-4.17,96.56-1.4,14.87-10.09,26.85-25.8,28.28-30.58,2.78-65.42-2.1-96.45-.13-12.26-1.55-23.95-14.57-23.95-26.95v-146.86H22.95c-7.66,0-18.76-10.92-21.18-18.06-7.29-21.56,9.34-31.47,23.32-43.42C99.3,131.78,176.81,72.08,250.96,8.58c10.43-9.39,25.29-12.05,36.89-3.01l75.5,62.36c2.51.45,1.34-1.14,1.54-2.67,1.43-11.13,7.19-20.56,18.42-24.02,10.45-3.22,51.44-3.18,62.03-.16,12.14,3.46,18.28,15.71,19.26,27.4,2.25,26.82-2.1,56.13.57,83.2l67.32,55.68c5.85,4.74,8.29,10.61,10.59,17.51v9.54Z"/>
  </g>
</svg>