<?xml version="1.0" encoding="UTF-8"?>
<svg id="_레이어_2" data-name="레이어 2" xmlns="http://www.w3.org/2000/svg" viewBox="0 0 369.11 408.84">
  <g id="_레이어_1-2" data-name="레이어 1">
    <g>
      <path d="M239.6,0l-.03,73.09c-.77,10.67,12.26,25.92,22.78,25.92h73.86v69.46H32.81V39.52c0-13.52,15.58-32.19,28.33-36.35l10.8-3.18h167.67Z"/>
      <path d="M333.82,376.86c-5.05,18.19-22.36,31.09-41.08,31.98l-218-.05c-18.26-1.7-34.51-14.09-39.54-31.93h298.62Z"/>
      <path d="M329.83,75.05h-64.27c-.14,0-2-1.85-2-2V7.98c2.32.77,4.97,3.15,6.81,4.77,16.12,14.2,38.98,36.95,53.1,53.1,2.27,2.59,5.26,5.98,6.37,9.2Z"/>
      <g>
        <path d="M252.07,262.41c-5.24,0-9.6,5.43-10.38,11.35h19.69c0-5.24-3.2-11.35-9.31-11.35Z"/>
        <path d="M128.97,290.45c0,4.17,2.62,6.5,6.98,6.5,6.98,0,11.54-4.85,11.64-16.2-14.84.29-18.62,3.98-18.62,9.7Z"/>
        <path d="M87.55,244.76h-9.41v21.53h6.4c7.76,0,12.03-3.3,12.03-11.06,0-6.89-3.59-10.48-9.02-10.48Z"/>
        <path d="M195.61,264.06c-5.33,0-10.57,5.33-10.57,16.98s4.66,16.88,10.57,16.88c6.5,0,10.77-5.24,10.77-16.88s-4.46-16.98-10.77-16.98Z"/>
        <path d="M368.14,220.78c-1.04-7.39-3.61-14.86-9.05-20.09-4.06-3.9-11.98-7.78-17.65-8.3H27.58c-14.55,2.15-25.08,12.96-26.61,27.68,1.82,33.64-2.77,70.45-.13,103.73,1.19,15.07,11.19,26.32,25.97,29.12l314.63.02c14.61-1.94,25.36-13.8,26.7-28.39,3.03-32.95-2.23-70.35,0-103.77ZM85.42,278.32h-7.27v27.06c0,1.84-.49,2.04-1.94,2.04h-9.31c-1.26,0-1.94-.19-1.94-2.04v-70.71c0-1.55.78-1.94,1.84-1.94h19.4c14.36,0,23.76,7.18,23.76,22.6s-10.57,22.99-24.54,22.99ZM157.88,307.52h-8.92c-1.16,0-1.36-.1-1.36-1.36v-4.17c-2.23,3.49-7.86,6.31-12.8,6.31-11.25.29-18.92-6.6-18.82-17.95,0-6.69,3.49-12.42,8.83-15.42,5.43-3.1,12.9-4.46,21.83-3.98-.39-5.14-2.62-7.95-6.6-8.44-5.14-.49-10.86,1.84-14.55,4.17-2.72,1.84-3.78,2.04-3.78-.58v-8.05c0-1.65.1-2.13,1.65-2.91,3.88-1.94,9.02-3.98,16.1-3.98,13.19,0,19.69,6.6,19.69,20.66v24.93c0,2.91.1,6.4.29,8.44.29,2.62-.29,2.33-1.55,2.33ZM196.78,309.65c-3.98,0-8.54-1.75-11.64-5.53v16.59c0,1.45-.29,1.94-1.84,1.94h-9.02c-1.46,0-1.84-.48-1.84-1.94v-65.77c0-1.84.68-2.23,2.13-2.23h8.73c1.55,0,2.04.29,2.04,1.75v3.78c2.42-3.2,7.47-6.01,12.51-6.01,13.1,0,21.44,11.25,21.44,29,0,16.78-8.54,28.42-22.5,28.42ZM273.99,282.01c-.1,1.55-.58,2.42-2.13,2.42h-30.36c.87,8.63,6.01,12.61,12.32,12.9,5.92.29,10.09-1.26,14.26-3.88,1.84-1.16,2.33-.68,2.33,1.55v7.27c0,1.45-.19,1.65-1.36,2.52-3.78,2.62-10.09,3.88-15.62,3.88-15.52,0-25.12-10.38-25.12-28.71,0-13.68,7.47-28.81,23.47-28.81s22.21,12.71,22.21,27.65v3.2ZM312.3,263.09c0,1.46-.49,2.23-1.75,1.55-2.42-1.07-4.56-1.16-6.11-.68-6.3,2.13-6.98,10.09-6.98,16.3v25.03c0,1.55-.29,2.04-1.75,2.04h-9.31c-1.46,0-1.65-.29-1.65-2.13v-38.41c0-4.17-.19-9.12-.19-12.12,0-1.65.39-2.04,1.84-2.04h9.31c.97,0,1.46.48,1.46,1.55v3.69c1.65-2.42,4.46-5.24,7.27-5.72,2.72-.49,5.63-.39,7.08.68.68.48.78.78.78,1.84v8.44Z"/>
      </g>
    </g>
  </g>
</svg>