<?xml version="1.0" encoding="UTF-8"?>
<svg id="_레이어_2" data-name="레이어 2" xmlns="http://www.w3.org/2000/svg" viewBox="0 0 289.19 381.52">
  <defs>
    <style>
      .cls-1 {
        fill: #fce5d5;
      }

      .cls-2 {
        fill: #d2b474;
      }

      .cls-3 {
        fill: #2866e5;
      }
    </style>
  </defs>
  <g id="_레이어_1-2" data-name="레이어 1">
    <path class="cls-3" d="M49.98,262.04s82.36-47.58,191.87.01c74.96,32.58-92.41,75.68-92.41,75.68l-99.45-75.7Z"/>
    <path d="M123.59,312.85l19.85-29.93,20.21,29.92c5.87-6.54,35.82-64.86,39.63-65.07,2.22-.12,13.54,4.11,16.53,5.17,21.68,7.68,61.17,25.47,68.07,49.45,2.13,7.39,1.14,16.28.77,23.9-79.23,72.82-209.25,74-288.55,1.14.42-8.42-1.13-17.38,1.46-25.5,8.93-27.92,56.44-45.64,82.04-53.45l40,64.34Z"/>
    <path class="cls-1" d="M211.92,66.58c4.42,16.1,8.49,32.57,8.25,49.4,11.39-1.98,9.87,7.29,8.88,15.25-1.14,9.15-9.72,37.32-16.57,42.93-1.24,1.01-3.08.4-4.17,2.21-4.77,7.96-4.69,24.35-7.65,33.52-3.42,10.58-14.69,16.52-23.55,22.11l-.77,14.95-32.91,35.2-32.47-34.14-1.22-17.49c-11.16-6.8-20.1-12.21-23.95-25.45-2.09-7.17-3.63-23.01-7.22-28.71-1.03-1.64-2.69-.81-4.31-2.43-8.7-8.71-16.97-37.12-17.3-49.35-.18-6.6,3.11-10.15,9.74-8.59-.06-17.26,3.25-34.74,9.35-50.84l70.38,20.96,65.48-19.52Z"/>
    <path d="M36.02,47.12v25.08c8.67,3.66,11.53,15.2,4.89,22.11-1.66,1.73-4.33,2.22-4.94,4.07-.88,7.35,2.01,8.85,4.16,14.63,5.34,14.38,10.72,38.78-12.73,35.93-14.1-1.71-9.28-24.04-6.17-33.15,1.28-3.73,5.49-10,5.83-12.89.83-7.1-2.77-5.1-6.02-8.99-4.29-5.12-4.18-13.48.46-18.28,1.72-1.78,5.02-2.37,5.53-4.95s.53-21.96.02-24.69-5.14-2.5-5.87-4.61c-.61-1.75-.58-5.79,1.57-6.42L146.37,0c36.8,12.34,77.66,19.16,114.04,31.95,3.81,1.34,7.52,1.74,7.73,6.54s-2.41,5.13-6.22,6.59l-115.49,32.03-110.41-30ZM36.51,79.57c-.69-.71-2.16-1.54-3.15-1.71-12.73-2.21-12.6,17.03.63,14.01,5.06-1.15,5.9-8.84,2.52-12.3Z"/>
    <path class="cls-2" d="M36.51,79.57c3.38,3.46,2.54,11.15-2.52,12.3-13.23,3.02-13.36-16.22-.63-14.01.98.17,2.45,1,3.15,1.71Z"/>
  </g>
</svg>