<?xml version="1.0" encoding="UTF-8"?>
<svg id="_레이어_2" data-name="레이어 2" xmlns="http://www.w3.org/2000/svg" viewBox="0 0 369.11 408.84">
  <g id="_레이어_1-2" data-name="레이어 1">
    <g>
      <path d="M239.6,0l-.03,73.09c-.77,10.67,12.26,25.92,22.78,25.92h73.86v69.46H32.81V39.52c0-13.52,15.58-32.19,28.33-36.35l10.8-3.18h167.67Z"/>
      <path d="M333.82,376.86c-5.05,18.19-22.36,31.09-41.08,31.98l-218-.05c-18.26-1.7-34.51-14.09-39.54-31.93h298.62Z"/>
      <path d="M329.83,75.05h-64.27c-.14,0-2-1.85-2-2V7.98c2.32.77,4.97,3.15,6.81,4.77,16.12,14.2,38.98,36.95,53.1,53.1,2.27,2.59,5.26,5.98,6.37,9.2Z"/>
      <g>
        <path d="M270.45,264.06c-5.33,0-10.57,5.33-10.57,16.98s4.66,16.88,10.57,16.88c6.5,0,10.77-5.24,10.77-16.88s-4.46-16.98-10.77-16.98Z"/>
        <path d="M211.67,264.06c-5.33,0-10.57,5.33-10.57,16.98s4.66,16.88,10.57,16.88c6.5,0,10.77-5.24,10.77-16.88s-4.46-16.98-10.77-16.98Z"/>
        <path d="M368.14,220.78c-1.04-7.39-3.61-14.86-9.05-20.09-4.06-3.9-11.98-7.78-17.65-8.3H27.58c-14.55,2.15-25.08,12.96-26.61,27.68,1.82,33.64-2.77,70.45-.13,103.73,1.19,15.07,11.19,26.32,25.97,29.12l314.63.02c14.61-1.94,25.36-13.8,26.7-28.39,3.03-32.95-2.23-70.35,0-103.77ZM112.63,301.99c-3.39,3.78-9.41,6.31-15.23,6.79-6.21.78-16.68-1.26-19.69-2.52-1.46-.68-1.75-.97-1.46-2.52l.97-9.41c.1-1.26.39-1.55,1.94-.87,4.85,2.04,13.29,3.69,18.24,2.43,5.43-1.26,7.57-4.07,7.57-9.6,0-2.42-1.84-6.21-9.31-10.86-14.16-8.73-19.79-14.45-19.79-23.77,0-11.64,10.18-20.47,23.38-20.47,6.6,0,11.25,1.07,14.36,2.52,1.65.78,1.65.97,1.36,2.42l-1.84,8.25c-.29,1.16-.68,1.46-2.62.78-12.12-3.88-21.05-1.36-21.05,7.28,0,3.1,2.62,6.21,8.83,9.99,15.81,9.8,20.37,14.84,20.37,24.25,0,6.21-2.23,11.15-6.01,15.33ZM172.19,307.52h-8.73c-1.45,0-1.75-.29-1.75-1.36v-3.69c-2.33,3.59-7.95,6.11-12.03,6.11-12.71,0-19.01-7.76-19.01-21.63v-32.2c0-1.46.39-2.04,1.84-2.04h8.92c1.55,0,1.94.97,1.94,2.13v30.46c0,8.92,2.91,11.45,7.57,11.45,5.72,0,10.19-4.36,10.19-13.77v-28.23c0-1.46.39-2.04,1.84-2.04h9.02c1.55,0,1.84,1.07,1.84,2.23v38.9c0,3.88.19,8.44.19,11.64,0,1.65,0,2.04-1.84,2.04ZM212.83,309.65c-3.98,0-8.54-1.75-11.64-5.53v16.59c0,1.45-.29,1.94-1.84,1.94h-9.02c-1.46,0-1.84-.48-1.84-1.94v-65.77c0-1.84.68-2.23,2.13-2.23h8.73c1.55,0,2.04.29,2.04,1.75v3.78c2.42-3.2,7.47-6.01,12.51-6.01,13.1,0,21.44,11.25,21.44,29,0,16.78-8.54,28.42-22.5,28.42ZM271.61,309.65c-3.98,0-8.54-1.75-11.64-5.53v16.59c0,1.45-.29,1.94-1.84,1.94h-9.02c-1.46,0-1.84-.48-1.84-1.94v-65.77c0-1.84.68-2.23,2.13-2.23h8.73c1.55,0,2.04.29,2.04,1.75v3.78c2.42-3.2,7.47-6.01,12.51-6.01,13.1,0,21.44,11.25,21.44,29,0,16.78-8.54,28.42-22.5,28.42Z"/>
      </g>
    </g>
  </g>
</svg>