<?xml version="1.0" encoding="UTF-8"?>
<svg id="_레이어_2" data-name="레이어 2" xmlns="http://www.w3.org/2000/svg" viewBox="0 0 383.44 383.32">
  <defs>
    <style>
      .cls-1 {
        fill: #0056ef;
      }
    </style>
  </defs>
  <g id="_레이어_1-2" data-name="레이어 1">
    <g>
      <path class="cls-1" d="M104.14,383.32h-16.46l-20.03-4.29c-29.69-9.05-56.39-36.61-64.31-66.66l-3.21-16.63c.31-5.37-.42-11.15,0-16.47,1.28-16.21,8.8-35.44,18.72-48.27l81.07-81.18,26.65,26.52-76.33,76.33c-41.08,57.05,30.63,119.64,83.83,77.13l72.95-72.98,26.51,26.66-81.57,81.43c-12.73,9.72-31.82,17.14-47.83,18.4Z"/>
      <path class="cls-1" d="M279.84.29c83.5-6.37,136.63,93.16,80.24,157.37l-76.07,75.9-27.2-26.52,76.69-76.72c40.29-57.25-31.27-119.1-84.2-76.74l-72.95,72.98-26.51-26.66L225.72,23.25c15.03-13.21,34.04-21.43,54.12-22.96Z"/>
      <polygon class="cls-1" points="241.56 114.65 268.06 140.4 268.44 142.29 142.31 266.97 116.82 241.5 116.45 239.61 241.56 114.65"/>
    </g>
  </g>
</svg>