<?xml version="1.0" encoding="UTF-8"?>
<svg id="_레이어_2" data-name="레이어 2" xmlns="http://www.w3.org/2000/svg" viewBox="0 0 408.82 306.92">
  <defs>
    <style>
      .cls-1 {
        fill: #0056ef;
      }
    </style>
  </defs>
  <g id="_레이어_1-2" data-name="레이어 1">
    <g>
      <path class="cls-1" d="M408.82,55.92v199.61c-2.76,5.05-7.48,7.21-13.06,4.68-37.23-28.25-76.36-54.3-112.66-83.76-6.66-5.4-18.54-11.8-9.93-21.04,40.54-31.51,77.98-69.93,118.51-101.06,6.54-5.02,12.5-6.97,17.14,1.57Z"/>
      <path class="cls-1" d="M30.18.25l346.33-.25c11.37.2,35.69,13.26,22.74,25.99-61.19,48.82-117.97,103.33-178.49,152.86-7.54,6.17-13.26,11.36-23.53,6.81C134.11,132.39,71.69,77.98,8.38,24.81-1.6,13.15,20.15.92,30.18.25Z"/>
      <path class="cls-1" d="M153.9,176.67c1.47-.3,3.08-.38,4.56-.14,4.56.72,21.4,18.62,27.84,22.47,11.49,6.87,24.75,6.87,36.24,0,8.54-5.11,18.01-17.75,25.49-21.61,2.5-1.29,5.47-1.31,8.07-.28,46.54,36.21,93.9,71.35,141.91,105.6,11.31,10.29-5.6,20.22-14.72,22.76-118.98,1.95-238.78,1.95-357.75,0-8.58-2.32-25.26-11.93-15.58-22.02,36.05-26.5,72.51-52.43,108.14-79.5,9.7-7.37,22.25-19.51,32.08-25.41,1.12-.67,2.44-1.6,3.72-1.87Z"/>
      <path class="cls-1" d="M2.66,259.27c-.84-.74-1.51-2.72-2.28-3.71L0,57.9c.84-6.98,6.29-9.05,12.59-6.96,38.71,34.12,80.1,65.82,118.39,100.38,14.22,12.83,6.62,15.5-5.24,25.13-36.3,29.46-75.42,55.51-112.66,83.76-2.83,1.67-8.03,1.18-10.42-.94Z"/>
    </g>
  </g>
</svg>