<?xml version="1.0" encoding="UTF-8"?>
<svg id="_레이어_2" data-name="레이어 2" xmlns="http://www.w3.org/2000/svg" viewBox="0 0 383.53 334.85">
  <defs>
    <style>
      .cls-1 {
        fill: #0056ef;
      }
    </style>
  </defs>
  <g id="_레이어_1-2" data-name="레이어 1">
    <g>
      <path class="cls-1" d="M383.53,101.31v11.23c-3.69,6.65-6.48,7.17-13.84,6.73-26.72-1.6-55.86-10.24-82.91-12.16-4.22-.89-8.1-4.06-8.73-8.49-1.6-11.26,1.86-26.93-.4-37.77-.89-4.26-4-6.55-8.24-6.73l-157.06.21c-3.02.86-5.72,3.19-6.36,6.36-2.15,10.64,1.49,26.89-.22,37.96-.63,4.09-4.72,7.82-8.75,8.47-27.08,1.79-56.92,10.92-83.61,12.2-16.22.77-13.86-12.07-12.29-24.26C7.85,42.77,52.61,3.79,104.66.97c57.14-3.1,117.04,2.41,174.47,0,47.81,2,89.58,35.92,101.18,82.22l3.21,18.12Z"/>
      <path class="cls-1" d="M260.02,71.37v28.82c0,2.65,3.35,9.83,4.93,12.29,8.94,13.95,24.76,12.09,39.14,15.13.11,1.7.25,3.17.81,4.81,15.51,45.37,37.28,90.22,52.25,135.63,1.02,3.08,3.93,11.33,3.93,14.04v52.77H22.73v-52.77c0-2.71,2.91-10.95,3.93-14.04,14.97-45.41,36.74-90.26,52.25-135.63.56-1.64.7-3.11.81-4.81,14.37-2.97,30.2-1.19,39.14-15.13,1.57-2.45,4.93-9.64,4.93-12.29v-28.82h136.23ZM184.25,144.93c-32.09,3.62-52.96,36.44-46.02,67.31,10.42,46.36,72.89,57.81,99.35,18.21,26.68-39.93-5.72-90.89-53.33-85.52Z"/>
    </g>
  </g>
</svg>