<?xml version="1.0" encoding="UTF-8"?>
<svg id="_레이어_2" data-name="레이어 2" xmlns="http://www.w3.org/2000/svg" viewBox="0 0 329.48 232.03">
  <defs>
    <style>
      .cls-1 {
        fill: #fff;
      }

      .cls-2 {
        fill: #f03;
      }
    </style>
  </defs>
  <g id="_레이어_1-2" data-name="레이어 1">
    <g>
      <path class="cls-2" d="M0,157.38V62.97c1.29-11.76,1.72-23.97,7.14-34.92C19.02,4,49.79,1.85,73.46,0h181.68c23.02,1.93,52.49,3.48,64.99,26.16,6.47,11.74,7.99,28.94,8.5,42.23,1.04,27.37,1.23,60.1,0,87.4-.97,21.4-5.06,48.45-23.56,61.84-13.99,10.12-34.9,12.92-51.85,13.63-58.44,2.44-118.57-1.91-177.19,0C24.77,228.75,2.65,209.04,0,157.38ZM136.54,67.62c-5.54.3-9.54,5.11-10.11,10.44-2.43,22.64,1.83,49.5,0,72.58.77,6.82,6.23,10.96,13.01,9.8,21.76-11.3,44.31-21.75,65.72-33.77,5.14-2.89,10.72-5,11.34-11.77.36-3.95-1.53-7.62-4.88-9.69-21.49-10.72-42.38-23.15-63.99-33.59-3.04-1.47-7.7-4.19-11.08-4.01Z"/>
      <path class="cls-1" d="M136.73,67.79c3.38-.18,8.04,2.54,11.08,4.01,21.61,10.43,42.5,22.86,63.99,33.59,3.35,2.06,5.24,5.73,4.88,9.69-.61,6.77-6.19,8.88-11.34,11.77-21.41,12.02-43.96,22.47-65.72,33.77-6.78,1.16-12.24-2.98-13.01-9.8,1.82-23.09-2.43-49.94,0-72.58.57-5.33,4.57-10.14,10.11-10.44Z"/>
    </g>
  </g>
</svg>